<svg width="51" height="50" viewBox="0 0 51 50" version="1.1" xmlns="http://www.w3.org/2000/svg" xmlns:xlink="http://www.w3.org/1999/xlink">
<title>deviouslyLogo</title>
<desc>Created using Figma</desc>
<g id="Canvas" transform="translate(-1276 -728)">
<g id="deviouslyLogo">
<g id="Vector 12">
<use xlink:href="#path0_fill" transform="matrix(-0.819152 0.573576 0.573576 0.819152 1307.32 743.385)" fill="#FFFFFF"/>
</g>
<g id="Vector 11">
<use xlink:href="#path1_fill" transform="matrix(-0.819152 0.573576 0.573576 0.819152 1306.78 728)" fill="url(#paint1_angular)"/>
</g>
</g>
</g>
<defs>
<radialGradient id="paint1_angular" cx="0.5" cy="0.5" r="0.5" gradientUnits="userSpaceOnUse" gradientTransform="matrix(21.0078 45.5766 -49.4922 22.8126 22.5136 -22.3664)">
<stop offset="0.176796" stop-color="#FEDF15"/>
<stop offset="0.900553" stop-color="#FF922E"/>
</radialGradient>
<path id="path0_fill" d="M 3.58101 4.23211C 2.53099 5.24836 2.02192 6.0545 1.73625 7.48758C 1.58514 8.24563 2.15779 10.4263 3.23697 11.9133C 4.62934 13.8319 9.95503 14.5339 9.95503 14.5339L 5.40848 15.8863L 0.868125 11.9367L 0 10.4175L 0.108516 7.92164L 0.108516 5.96836L 0.434062 4.23211L 1.51922 2.0618L 3.58101 0L 4.8832 0.434062L 6.07687 2.71289C 6.07687 2.71289 4.40095 3.43855 3.58101 4.23211Z"/>
<path id="path1_fill" d="M 8.48843 9.98343C 8.81398 9.11531 10.1162 5.85984 10.1162 5.85984L 10.4417 0C 10.4417 0 11.5257 3.34714 13.2631 4.44914C 15.446 5.83377 17.6191 5.69792 19.8825 4.44914C 21.7897 3.39687 23.2465 0 23.2465 0C 23.2465 0 23.0573 2.79057 23.5721 5.85984C 23.8264 7.37578 24.5117 8.95971 24.5487 10.309C 24.5708 11.1139 24.5487 12.3708 24.5487 12.3708C 24.5487 12.3708 21.1495 11.8282 19.8825 13.3474C 18.717 14.745 18.4719 17.471 18.4719 17.471C 18.4719 17.471 17.7377 18.6877 16.8441 18.6647C 15.9863 18.6426 15.1484 18.316 14.9993 17.471C 14.6738 15.6262 13.2631 13.3474 13.2631 13.3474C 13.2631 13.3474 13.0609 13.2392 12.7541 13.0933C 12.3623 13.3651 11.6688 14.2163 10.4417 16.3859C 7.64278 21.3341 11.3713 26.2194 11.3713 26.2194C 11.3215 20.0462 22.549 19.518 27.3456 21.1379C 32.1423 22.7579 37.5705 30.7099 37.5705 30.7099C 37.5705 30.7099 34.2031 28.8092 33.2042 28.6331C 32.2053 28.457 24.3337 31.9148 21.3668 32.649C 18.4 33.3832 15.9756 33.9164 12.9289 33.6742C 6.76289 33.184 0.458282 28.5396 0.132712 25.5012C -0.192858 22.4627 0.074666 21.7954 1.00085 20.0754C 2.5201 17.254 3.28173 16.4344 5.44994 14.4326C 6.42766 13.5299 8.16283 12.3708 8.16283 12.3708C 8.16283 12.3708 8.20571 10.7373 8.48843 9.98343Z"/>
</defs>
</svg>
